<?xml version="1.0" encoding="UTF-8"?>
<svg id="Layer_2" data-name="Layer 2" xmlns="http://www.w3.org/2000/svg" viewBox="0 0 230 120">
  <defs>
    <style>
      .cls-1, .cls-2, .cls-3, .cls-4 {
        fill: #fff;
      }

      .cls-5 {
        fill: #231f20;
      }

      .cls-5, .cls-6, .cls-2, .cls-3, .cls-4, .cls-7 {
        stroke-miterlimit: 10;
      }

      .cls-5, .cls-2, .cls-3, .cls-7 {
        stroke: #231f20;
      }

      .cls-5, .cls-2, .cls-4, .cls-7 {
        stroke-width: 4px;
      }

      .cls-6 {
        fill: none;
        stroke-linecap: round;
        stroke-width: 2px;
      }

      .cls-6, .cls-4 {
        stroke: #9e0a34;
      }

      .cls-3 {
        stroke-width: 5px;
      }

      .cls-7 {
        fill: #9e0a34;
      }
    </style>
  </defs>
  <g id="Layer_2-2" data-name="Layer 2">
    <path class="cls-2" d="M170.17,76.81l1.26-.85c5.32-3.56,7.55-10.27,5.42-16.3h0c-1.98-5.61-7.27-9.36-13.22-9.36h-2.53c-5.94,0-11.24,3.75-13.22,9.36h0c-2.13,6.03.1,12.74,5.42,16.3l1.26.85c4.72,3.16,10.88,3.16,15.6,0Z"/>
    <g>
      <path class="cls-3" d="M199.06,115.65c-20.73,6.74-42.9-3.37-51.68-22.77h-63.91c-8.78,19.4-30.94,29.51-51.67,22.77C9.53,108.42-2.65,84.51,4.58,62.25l9.71-29.87c4.63-14.25,16.1-24.37,29.59-27.9,4.2-1.29,8.65-1.98,13.27-1.98h117.26c7.9,0,15.32,2.03,21.78,5.59,5.35,2.94,10.03,6.94,13.77,11.7.17.19.31.39.45.59,2.62,3.55,4.71,7.58,6.15,12l2.27,6.97,7.44,22.9c7.23,22.26-4.95,46.17-27.21,53.4Z"/>
      <path class="cls-7" d="M57.97,85.41l14.53-10.56c4.97-3.61,7.05-10.01,5.15-15.85l-5.55-17.08c-1.9-5.84-7.34-9.79-13.48-9.79h-17.96c-6.14,0-11.58,3.95-13.48,9.79l-5.55,17.08c-1.9,5.84.18,12.24,5.15,15.85l14.53,10.56c4.97,3.61,11.69,3.61,16.66,0Z"/>
      <path class="cls-4" d="M57.51,70.5l1.26-.85c5.32-3.56,7.55-10.27,5.42-16.3h0c-1.98-5.61-7.27-9.36-13.22-9.36h-2.53c-5.94,0-11.24,3.75-13.22,9.36h0c-2.13,6.03.1,12.74,5.42,16.3l1.26.85c4.72,3.16,10.88,3.16,15.6,0Z"/>
      <path class="cls-5" d="M172.88,85.41l-14.53-10.56c-4.97-3.61-7.05-10.01-5.15-15.85l5.55-17.08c1.9-5.84,7.34-9.79,13.48-9.79h17.96c6.14,0,11.58,3.95,13.48,9.79l5.55,17.08c1.9,5.84-.18,12.24-5.15,15.85l-14.53,10.56c-4.97,3.61-11.69,3.61-16.66,0Z"/>
      <path class="cls-1" d="M156.38,53.81h6.6c2.38,0,4.22.66,5.51,1.97,1.29,1.32,1.94,2.9,1.94,4.76,0,1.18-.29,2.3-.88,3.35-.59,1.05-1.45,1.87-2.59,2.45-1.14.58-2.51.88-4.12.88h-6.46v-13.41ZM162.31,58.94v3.15h.15c.71,0,1.23-.12,1.55-.37s.48-.66.48-1.23c0-1.03-.6-1.55-1.8-1.55h-.38Z"/>
      <path class="cls-1" d="M205.84,53.81v6.08c0,2.65-.68,4.58-2.03,5.77-1.36,1.19-2.91,1.78-4.65,1.78-1.26,0-2.46-.33-3.59-.98-1.13-.66-1.93-1.52-2.39-2.6s-.69-2.49-.69-4.23v-5.82h5.94v6.21c0,.67.06,1.09.18,1.27s.29.26.53.26c.33,0,.54-.16.62-.48.09-.32.13-.86.13-1.61v-5.65h5.94Z"/>
      <path class="cls-1" d="M173.02,47.32v-13.41h5.77l2.43,2.79,2.43-2.79h5.76v13.41h-5.94v-6.71l-2.25,2.59-2.25-2.59v6.71h-5.94Z"/>
      <path class="cls-1" d="M188.4,72.04l-2.87,4.03c-1.2-.57-2.3-.86-3.31-.86-.67,0-1.21.17-1.62.52-.41.35-.61.81-.61,1.38,0,1.09.71,1.63,2.14,1.63v-2.1h5.94v7.23c-2.4.13-4.03.2-4.88.2-3.28,0-5.56-.7-6.84-2.09s-1.92-3.02-1.92-4.88c0-1.28.3-2.45.89-3.52.59-1.07,1.45-1.89,2.57-2.48s2.45-.88,3.99-.88c1.08,0,2.19.16,3.35.47s2.21.75,3.16,1.32Z"/>
      <line class="cls-6" x1="165.38" y1="42" x2="197.33" y2="73.95"/>
      <line class="cls-6" x1="164.97" y1="73.95" x2="197.05" y2="41.88"/>
    </g>
  </g>
</svg>